<svg width="81" height="70" viewBox="0 0 81 70" fill="none" xmlns="http://www.w3.org/2000/svg">
<path d="M25.0776 59.4903L64.3008 70L80.2414 10.5097L41.0182 -2.82162e-06L25.0776 59.4903Z" fill="#EEAD4F"/>
<path d="M29.8764 58.1027L60.9249 66.422C61.7571 66.6449 62.6124 66.1511 62.8354 65.319L76.7013 13.5712C76.9243 12.739 76.4305 11.8837 75.5984 11.6608L44.5498 3.34146C43.7177 3.1185 42.8624 3.61231 42.6394 4.44442L28.7734 56.1923C28.5505 57.0244 29.0443 57.8797 29.8764 58.1027Z" fill="white" stroke="white" stroke-width="0.311966"/>
<mask id="mask0_238_9161" style="mask-type:luminance" maskUnits="userSpaceOnUse" x="28" y="3" width="49" height="64">
<path d="M29.8764 58.1028L60.9249 66.4221C61.7571 66.6451 62.6124 66.1512 62.8354 65.3191L76.7013 13.5713C76.9243 12.7392 76.4305 11.8839 75.5984 11.6609L44.5498 3.34158C43.7177 3.11862 42.8624 3.61242 42.6394 4.44454L28.7734 56.1924C28.5505 57.0245 29.0443 57.8798 29.8764 58.1028Z" fill="white"/>
</mask>
<g mask="url(#mask0_238_9161)">
<path d="M33.7791 27.2612C33.7791 27.2612 46.1089 26.6802 58.0652 37.9087C58.0652 37.9087 64.7987 37.2604 69.1617 44.0157C82.3189 64.3873 62.4322 66.8257 62.4322 66.8257L26.0453 57.1274L33.7791 27.2612Z" fill="#EEAD4F" stroke="white" stroke-width="0.12"/>
<path d="M50.0734 20.5112C50.0734 20.5112 47.2847 16.5877 49.1938 17.3838C51.1029 18.1799 50.0734 20.5112 50.0734 20.5112Z" fill="#EEAD4F" stroke="white" stroke-width="0.318969"/>
<path d="M48.9899 19.7601C48.9899 19.7601 45.4344 16.5152 47.4687 16.8895C49.503 17.2638 48.9899 19.7601 48.9899 19.7601Z" fill="#EEAD4F" stroke="white" stroke-width="0.318969"/>
<path d="M49.2122 21.0755L47.7751 19.0711C47.7751 19.0711 44.6103 17.2698 44.3483 16.4031C44.0863 15.5364 47.7383 17.2 49.227 19.7085C50.7156 22.2169 49.2122 21.0755 49.2122 21.0755Z" fill="#EEAD4F" stroke="white" stroke-width="0.318969"/>
<path d="M47.7332 20.6823L46.0906 18.8425C46.0906 18.8425 42.7519 17.3886 42.399 16.5548C42.0462 15.7209 45.8547 16.986 47.6021 19.3215C49.3496 21.657 47.7332 20.6823 47.7332 20.6823Z" fill="#EEAD4F" stroke="white" stroke-width="0.318969"/>
<path d="M46.924 20.4768L44.9411 19.0102C44.9411 19.0102 41.3762 18.2669 40.8609 17.5224C40.3456 16.7778 44.3319 17.2406 46.5185 19.1712C48.7051 21.1018 46.924 20.4768 46.924 20.4768Z" fill="#EEAD4F" stroke="white" stroke-width="0.318969"/>
<path d="M53.1124 21.8428C53.1124 21.8428 50.3237 17.9193 52.2329 18.7154C54.142 19.5115 53.1124 21.8428 53.1124 21.8428Z" fill="#EEAD4F" stroke="white" stroke-width="0.318969"/>
<path d="M52.0289 21.0916C52.0289 21.0916 48.4734 17.8467 50.5077 18.221C52.5421 18.5952 52.0289 21.0916 52.0289 21.0916Z" fill="#EEAD4F" stroke="white" stroke-width="0.318969"/>
<path d="M52.2513 22.4069L50.8141 20.4026C50.8141 20.4026 47.6494 18.6012 47.3874 17.7345C47.1254 16.8678 50.7774 18.5315 52.266 21.0399C53.7547 23.5484 52.2513 22.4069 52.2513 22.4069Z" fill="#EEAD4F" stroke="white" stroke-width="0.318969"/>
<path d="M50.7722 22.0138L49.1297 20.174C49.1297 20.174 45.791 18.7202 45.4381 17.8863C45.0852 17.0524 48.8937 18.3175 50.6412 20.653C52.3887 22.9886 50.7722 22.0138 50.7722 22.0138Z" fill="#EEAD4F" stroke="white" stroke-width="0.318969"/>
<path d="M49.9631 21.8083L47.9801 20.3416C47.9801 20.3416 44.4153 19.5983 43.9 18.8538C43.3846 18.1093 47.371 18.5721 49.5576 20.5027C51.7442 22.4333 49.9631 21.8083 49.9631 21.8083Z" fill="#EEAD4F" stroke="white" stroke-width="0.318969"/>
<path d="M43.4738 22.3883L42.4774 22.3519C42.4774 22.3519 39.4023 24.6823 38.431 22.3958C37.4597 20.1094 40.5235 19.7769 41.1325 20.0438C41.7416 20.3107 44.7426 20.4552 44.7426 20.4552L47.7366 19.8469C47.7366 19.8469 50.421 18.212 50.7043 18.288C50.9877 18.3639 52.6332 18.3188 52.6332 18.3188C52.6332 18.3188 55.7132 18.372 55.9409 20.6837C56.1685 22.9954 52.8835 22.2809 52.8835 22.2809C52.8835 22.2809 50.6053 24.1729 48.7804 23.9797C46.9555 23.7866 44.1845 22.5894 44.1845 22.5894C44.1845 22.5894 43.712 22.3222 43.4738 22.3883Z" fill="#EEAD4F" stroke="white" stroke-width="0.386431"/>
<path d="M48.818 21.8879C48.818 21.8879 51.2649 22.9575 51.7347 24.5147C52.2045 26.0718 53.4419 28.3012 53.5653 28.7276C53.6886 29.154 55.8156 30.1958 55.8156 30.1958C55.8156 30.1958 53.7104 26.8798 53.448 26.9292C53.1856 26.9786 54.8868 28.7111 54.8868 28.7111C54.8868 28.7111 54.6605 25.6151 52.7435 24.6087C50.8265 23.6024 54.756 26.6997 54.756 26.6997C54.756 26.6997 54.1486 23.8428 52.3502 23.2149C50.5518 22.5871 54.4027 24.9965 54.4027 24.9965C54.4027 24.9965 54.6503 21.8631 51.9663 21.4716C49.2822 21.0801 54.0822 23.4304 54.0822 23.4304C54.0822 23.4304 53.8996 20.5413 52.125 20.2159C50.3504 19.8906 48.818 21.8879 48.818 21.8879Z" fill="#EEAD4F" stroke="white" stroke-width="0.318969"/>
<path d="M53.2841 18.6686C53.2841 18.6686 56.8432 16.3354 56.5993 17.4602C56.5429 17.7204 54.563 19.1618 54.563 19.1618C54.563 19.1618 56.432 16.8963 57.4205 17.4356C58.4091 17.9749 55.2065 19.6848 55.2065 19.6848C55.2065 19.6848 57.3763 17.3659 58.5539 17.6626C59.7315 17.9593 55.8143 19.9612 55.8143 19.9612C55.8143 19.9612 58.952 17.8083 59.3319 18.18C59.7117 18.5518 59.5925 19.6383 57.1456 20.1043C54.6986 20.5702 58.588 19.8858 58.588 19.8858C58.588 19.8858 57.6324 22.4547 54.7827 20.3542" fill="#EEAD4F"/>
<path d="M53.2841 18.6686C53.2841 18.6686 56.8432 16.3354 56.5993 17.4602C56.5429 17.7204 54.563 19.1618 54.563 19.1618C54.563 19.1618 56.432 16.8963 57.4205 17.4356C58.4091 17.9749 55.2065 19.6848 55.2065 19.6848C55.2065 19.6848 57.3763 17.3659 58.5539 17.6626C59.7315 17.9593 55.8143 19.9612 55.8143 19.9612C55.8143 19.9612 58.952 17.8083 59.3319 18.18C59.7117 18.5518 59.5925 19.6383 57.1456 20.1043C54.6986 20.5702 58.588 19.8858 58.588 19.8858C58.588 19.8858 57.6324 22.4547 54.7827 20.3542" stroke="white" stroke-width="0.318969"/>
<path d="M39.5143 21.5375C39.4965 21.3123 39.5689 21.0892 39.7153 20.9171C39.8618 20.7451 40.0705 20.6381 40.2957 20.6196C40.5209 20.6012 40.7442 20.6727 40.9168 20.8186C41.0464 20.9282 41.1394 21.073 41.1858 21.2337C41.1752 21.2127 41.1628 21.1926 41.1489 21.1734M39.5143 21.5375C39.5241 21.6499 39.578 21.7539 39.6642 21.8266C39.7505 21.8994 39.862 21.935 39.9744 21.9258C40.0869 21.9166 40.1911 21.8632 40.2643 21.7774C40.3376 21.6916 40.3738 21.5803 40.3652 21.4678M39.5143 21.5375L39.5301 21.5361C39.5301 21.5362 39.5301 21.5362 39.5302 21.5362M39.5143 21.5375L39.5302 21.5363C39.5302 21.5363 39.5302 21.5362 39.5302 21.5362M40.3652 21.4678C40.3563 21.3551 40.3924 21.2435 40.4657 21.1574C40.5389 21.0713 40.6433 21.0178 40.756 21.0086C40.8686 20.9993 40.9803 21.0351 41.0666 21.1081C41.1102 21.145 41.1454 21.1898 41.1709 21.2396C41.1645 21.2172 41.1572 21.1952 41.1489 21.1734M40.3652 21.4678L40.3493 21.469C40.3493 21.469 40.3493 21.469 40.3493 21.469M40.3652 21.4678L40.3493 21.469L40.3493 21.469M41.1489 21.1734C41.1283 21.1451 41.1041 21.119 41.0769 21.096C40.9874 21.0202 40.8715 20.9831 40.7547 20.9927C40.6378 21.0023 40.5295 21.0578 40.4535 21.1471C40.3776 21.2364 40.3401 21.3521 40.3493 21.469M41.1489 21.1734C41.0989 21.0417 41.016 20.9234 40.9065 20.8308C40.7372 20.6876 40.518 20.6174 40.297 20.6355C40.076 20.6536 39.8712 20.7586 39.7275 20.9275C39.5837 21.0963 39.5128 21.3152 39.5302 21.5362M40.3493 21.469L40.2522 21.7671C40.1817 21.8497 40.0814 21.9011 39.9731 21.9099C39.8649 21.9188 39.7575 21.8845 39.6745 21.8144C39.5915 21.7444 39.5396 21.6444 39.5302 21.5362" fill="white" stroke="white" stroke-width="0.0318969"/>
<path d="M38.0414 21.5975C38.0414 21.5975 34.6789 23.8082 35.6238 23.3408L38.2472 22.4761L36.558 23.1354L39.0827 23.3341L38.3212 22.545L38.0414 21.5975Z" fill="#EEAD4F" stroke="white" stroke-width="0.263096"/>
<path d="M65.7921 15.3179C65.7921 15.3179 63.0034 11.3944 64.9125 12.1905C66.8217 12.9866 65.7921 15.3179 65.7921 15.3179Z" fill="#EEAD4F" stroke="white" stroke-width="0.318969"/>
<path d="M64.7086 14.5667C64.7086 14.5667 61.1531 11.3217 63.1874 11.696C65.2218 12.0703 64.7086 14.5667 64.7086 14.5667Z" fill="#EEAD4F" stroke="white" stroke-width="0.318969"/>
<path d="M64.931 15.882L63.4938 13.8777C63.4938 13.8777 60.329 12.0763 60.067 11.2096C59.805 10.3429 63.457 12.0066 64.9457 14.515C66.4344 17.0234 64.931 15.882 64.931 15.882Z" fill="#EEAD4F" stroke="white" stroke-width="0.318969"/>
<path d="M63.4519 15.4889L61.8093 13.6491C61.8093 13.6491 58.4707 12.1953 58.1178 11.3614C57.7649 10.5275 61.5734 11.7926 63.3209 14.1281C65.0684 16.4637 63.4519 15.4889 63.4519 15.4889Z" fill="#EEAD4F" stroke="white" stroke-width="0.318969"/>
<path d="M62.6427 15.2833L60.6598 13.8167C60.6598 13.8167 57.095 13.0734 56.5796 12.3289C56.0643 11.5844 60.0507 12.0471 62.2373 13.9777C64.4239 15.9083 62.6427 15.2833 62.6427 15.2833Z" fill="#EEAD4F" stroke="white" stroke-width="0.318969"/>
<path d="M68.8292 16.6495C68.8292 16.6495 66.0405 12.726 67.9496 13.5221C69.8588 14.3182 68.8292 16.6495 68.8292 16.6495Z" fill="#EEAD4F" stroke="white" stroke-width="0.318969"/>
<path d="M67.7457 15.8983C67.7457 15.8983 64.1902 12.6533 66.2245 13.0276C68.2589 13.4019 67.7457 15.8983 67.7457 15.8983Z" fill="#EEAD4F" stroke="white" stroke-width="0.318969"/>
<path d="M67.9681 17.2136L66.5309 15.2093C66.5309 15.2093 63.3662 13.4079 63.1041 12.5412C62.8421 11.6745 66.4942 13.3382 67.9828 15.8466C69.4715 18.3551 67.9681 17.2136 67.9681 17.2136Z" fill="#EEAD4F" stroke="white" stroke-width="0.318969"/>
<path d="M66.489 16.8205L64.8465 14.9807C64.8465 14.9807 61.5078 13.5269 61.1549 12.693C60.802 11.8591 64.6105 13.1242 66.358 15.4597C68.1055 17.7953 66.489 16.8205 66.489 16.8205Z" fill="#EEAD4F" stroke="white" stroke-width="0.318969"/>
<path d="M65.6799 16.6149L63.6969 15.1483C63.6969 15.1483 60.1321 14.405 59.6167 13.6605C59.1014 12.916 63.0878 13.3787 65.2744 15.3093C67.461 17.2399 65.6799 16.6149 65.6799 16.6149Z" fill="#EEAD4F" stroke="white" stroke-width="0.318969"/>
<path d="M59.1906 17.1949L58.1942 17.1586C58.1942 17.1586 55.1191 19.4889 54.1478 17.2025C53.1765 14.916 56.2402 14.5835 56.8493 14.8505C57.4584 15.1174 60.4594 15.2618 60.4594 15.2618L63.4534 14.6536C63.4534 14.6536 66.1378 13.0187 66.4211 13.0946C66.7045 13.1705 68.35 13.1254 68.35 13.1254C68.35 13.1254 71.43 13.1786 71.6576 15.4903C71.8853 17.8021 68.6002 17.0876 68.6002 17.0876C68.6002 17.0876 66.3221 18.9795 64.4972 18.7864C62.6723 18.5932 59.9013 17.3961 59.9013 17.3961C59.9013 17.3961 59.4288 17.1289 59.1906 17.1949Z" fill="#EEAD4F" stroke="white" stroke-width="0.386431"/>
<path d="M64.5348 16.6946C64.5348 16.6946 66.9817 17.7642 67.4515 19.3213C67.9213 20.8784 69.1587 23.1079 69.2821 23.5342C69.4054 23.9606 71.5324 25.0025 71.5324 25.0025C71.5324 25.0025 69.4272 21.6864 69.1648 21.7358C68.9024 21.7852 70.6036 23.5177 70.6036 23.5177C70.6036 23.5177 70.3773 20.4218 68.4603 19.4154C66.5433 18.409 70.4728 21.5063 70.4728 21.5063C70.4728 21.5063 69.8654 18.6495 68.067 18.0216C66.2686 17.3937 70.1195 19.8032 70.1195 19.8032C70.1195 19.8032 70.3671 16.6697 67.6831 16.2782C64.999 15.8868 69.799 18.237 69.799 18.237C69.799 18.237 69.6164 15.348 67.8418 15.0226C66.0672 14.6972 64.5348 16.6946 64.5348 16.6946Z" fill="#EEAD4F" stroke="white" stroke-width="0.318969"/>
<path d="M69.0009 13.4752C69.0009 13.4752 72.56 11.1421 72.3161 12.2669C72.2596 12.527 70.2798 13.9684 70.2798 13.9684C70.2798 13.9684 72.1488 11.7029 73.1373 12.2422C74.1259 12.7815 70.9233 14.4915 70.9233 14.4915C70.9233 14.4915 73.0931 12.1725 74.2707 12.4692C75.4483 12.766 71.5311 14.7679 71.5311 14.7679C71.5311 14.7679 74.6688 12.6149 75.0487 12.9867C75.4285 13.3585 75.3093 14.4449 72.8624 14.9109C70.4154 15.3768 74.3048 14.6924 74.3048 14.6924C74.3048 14.6924 73.3492 17.2614 70.4995 15.1608" fill="#EEAD4F"/>
<path d="M69.0009 13.4752C69.0009 13.4752 72.56 11.1421 72.3161 12.2669C72.2596 12.527 70.2798 13.9684 70.2798 13.9684C70.2798 13.9684 72.1488 11.7029 73.1373 12.2422C74.1259 12.7815 70.9233 14.4915 70.9233 14.4915C70.9233 14.4915 73.0931 12.1725 74.2707 12.4692C75.4483 12.766 71.5311 14.7679 71.5311 14.7679C71.5311 14.7679 74.6688 12.6149 75.0487 12.9867C75.4285 13.3585 75.3093 14.4449 72.8624 14.9109C70.4154 15.3768 74.3048 14.6924 74.3048 14.6924C74.3048 14.6924 73.3492 17.2614 70.4995 15.1608" stroke="white" stroke-width="0.318969"/>
<path d="M55.2291 16.3442C55.2114 16.1189 55.2837 15.8958 55.4302 15.7238C55.5766 15.5517 55.7853 15.4447 56.0105 15.4263C56.2357 15.4078 56.4591 15.4793 56.6316 15.6252C56.7612 15.7348 56.8543 15.8797 56.9007 16.0404C56.89 16.0194 56.8777 15.9992 56.8638 15.9801M55.2291 16.3442C55.2389 16.4566 55.2929 16.5605 55.3791 16.6333C55.4653 16.706 55.5768 16.7417 55.6893 16.7325C55.8017 16.7232 55.906 16.6699 55.9792 16.5841C56.0524 16.4982 56.0887 16.3869 56.0801 16.2744M55.2291 16.3442L55.245 16.3428C55.245 16.3428 55.245 16.3428 55.245 16.3428M55.2291 16.3442L55.245 16.3429C55.245 16.3429 55.245 16.3429 55.245 16.3428M56.0801 16.2744C56.0712 16.1617 56.1073 16.0501 56.1805 15.964C56.2538 15.878 56.3582 15.8244 56.4708 15.8152C56.5834 15.806 56.6952 15.8418 56.7814 15.9148C56.825 15.9516 56.8603 15.9964 56.8858 16.0463C56.8794 16.0239 56.872 16.0018 56.8638 15.9801M56.0801 16.2744L56.0642 16.2756C56.0642 16.2756 56.0642 16.2756 56.0642 16.2756M56.0801 16.2744L56.0642 16.2757L56.0642 16.2756M56.8638 15.9801C56.8431 15.9517 56.819 15.9256 56.7917 15.9026C56.7022 15.8269 56.5863 15.7897 56.4695 15.7993C56.3526 15.8089 56.2444 15.8644 56.1684 15.9537C56.0924 16.043 56.0549 16.1588 56.0642 16.2756M56.8638 15.9801C56.8138 15.8483 56.7309 15.73 56.6213 15.6374C56.452 15.4942 56.2328 15.424 56.0118 15.4422C55.7908 15.4603 55.5861 15.5653 55.4423 15.7341C55.2986 15.9029 55.2276 16.1218 55.245 16.3428M56.0642 16.2756L55.9671 16.5737C55.8966 16.6563 55.7962 16.7077 55.688 16.7166C55.5797 16.7254 55.4724 16.6911 55.3894 16.6211C55.3064 16.551 55.2545 16.451 55.245 16.3428" fill="white" stroke="white" stroke-width="0.0318969"/>
<path d="M53.7582 16.4042C53.7582 16.4042 50.3957 18.6149 51.3406 18.1475L53.964 17.2828L52.2747 17.942L54.7995 18.1407L54.038 17.3517L53.7582 16.4042Z" fill="#EEAD4F" stroke="white" stroke-width="0.263096"/>
<path d="M64.8956 29.0274C64.8956 29.0274 62.1069 25.1038 64.0161 25.8999C65.9252 26.696 64.8956 29.0274 64.8956 29.0274Z" fill="#EEAD4F" stroke="white" stroke-width="0.318969"/>
<path d="M63.8121 28.2762C63.8121 28.2762 60.2566 25.0312 62.2909 25.4055C64.3253 25.7798 63.8121 28.2762 63.8121 28.2762Z" fill="#EEAD4F" stroke="white" stroke-width="0.318969"/>
<path d="M64.0345 29.5915L62.5973 27.5871C62.5973 27.5871 59.4326 25.7858 59.1706 24.9191C58.9086 24.0524 62.5606 25.716 64.0492 28.2245C65.5379 30.7329 64.0345 29.5915 64.0345 29.5915Z" fill="#EEAD4F" stroke="white" stroke-width="0.318969"/>
<path d="M62.5554 29.1984L60.9129 27.3586C60.9129 27.3586 57.5742 25.9048 57.2213 25.0709C56.8684 24.237 60.6769 25.5021 62.4244 27.8376C64.1719 30.1732 62.5554 29.1984 62.5554 29.1984Z" fill="#EEAD4F" stroke="white" stroke-width="0.318969"/>
<path d="M61.7463 28.9928L59.7633 27.5262C59.7633 27.5262 56.1985 26.7829 55.6832 26.0384C55.1678 25.2939 59.1542 25.7567 61.3408 27.6873C63.5274 29.6179 61.7463 28.9928 61.7463 28.9928Z" fill="#EEAD4F" stroke="white" stroke-width="0.318969"/>
<path d="M67.9308 30.3591C67.9308 30.3591 65.1421 26.4355 67.0512 27.2316C68.9603 28.0277 67.9308 30.3591 67.9308 30.3591Z" fill="#EEAD4F" stroke="white" stroke-width="0.318969"/>
<path d="M66.8473 29.6078C66.8473 29.6078 63.2918 26.3628 65.3261 26.7371C67.3604 27.1114 66.8473 29.6078 66.8473 29.6078Z" fill="#EEAD4F" stroke="white" stroke-width="0.318969"/>
<path d="M67.0697 30.9232L65.6325 28.9188C65.6325 28.9188 62.4677 27.1175 62.2057 26.2507C61.9437 25.384 65.5957 27.0477 67.0844 29.5561C68.573 32.0646 67.0697 30.9232 67.0697 30.9232Z" fill="#EEAD4F" stroke="white" stroke-width="0.318969"/>
<path d="M65.5906 30.5301L63.948 28.6903C63.948 28.6903 60.6093 27.2364 60.2565 26.4026C59.9036 25.5687 63.7121 26.8337 65.4596 29.1693C67.207 31.5048 65.5906 30.5301 65.5906 30.5301Z" fill="#EEAD4F" stroke="white" stroke-width="0.318969"/>
<path d="M64.7814 30.3244L62.7985 28.8578C62.7985 28.8578 59.2336 28.1145 58.7183 27.37C58.203 26.6255 62.1893 27.0883 64.3759 29.0189C66.5625 30.9495 64.7814 30.3244 64.7814 30.3244Z" fill="#EEAD4F" stroke="white" stroke-width="0.318969"/>
<path d="M58.2941 30.9043L57.2977 30.868C57.2977 30.868 54.2226 33.1984 53.2513 30.9119C52.28 28.6254 55.3438 28.293 55.9528 28.5599C56.5619 28.8268 59.563 28.9712 59.563 28.9712L62.5569 28.363C62.5569 28.363 65.2413 26.7281 65.5247 26.804C65.808 26.8799 67.4535 26.8348 67.4535 26.8348C67.4535 26.8348 70.5335 26.888 70.7612 29.1998C70.9888 31.5115 67.7038 30.797 67.7038 30.797C67.7038 30.797 65.4256 32.6889 63.6007 32.4958C61.7758 32.3026 59.0048 31.1055 59.0048 31.1055C59.0048 31.1055 58.5323 30.8383 58.2941 30.9043Z" fill="#EEAD4F" stroke="white" stroke-width="0.386431"/>
<path d="M63.6383 30.4041C63.6383 30.4041 66.0852 31.4737 66.555 33.0308C67.0248 34.5879 68.2623 36.8173 68.3856 37.2437C68.5089 37.6701 70.6359 38.7119 70.6359 38.7119C70.6359 38.7119 68.5307 35.3959 68.2683 35.4453C68.0059 35.4947 69.7071 37.2272 69.7071 37.2272C69.7071 37.2272 69.4808 34.1312 67.5638 33.1249C65.6468 32.1185 69.5763 35.2158 69.5763 35.2158C69.5763 35.2158 68.969 32.359 67.1705 31.7311C65.3721 31.1032 69.223 33.5126 69.223 33.5126C69.223 33.5126 69.4706 30.3792 66.7866 29.9877C64.1025 29.5962 68.9025 31.9465 68.9025 31.9465C68.9025 31.9465 68.7199 29.0574 66.9453 28.7321C65.1707 28.4067 63.6383 30.4041 63.6383 30.4041Z" fill="#EEAD4F" stroke="white" stroke-width="0.318969"/>
<path d="M68.1045 27.1847C68.1045 27.1847 71.6635 24.8516 71.4196 25.9764C71.3632 26.2365 69.3833 27.6779 69.3833 27.6779C69.3833 27.6779 71.2523 25.4124 72.2408 25.9517C73.2294 26.491 70.0268 28.2009 70.0268 28.2009C70.0268 28.2009 72.1966 25.882 73.3742 26.1787C74.5518 26.4754 70.6346 28.4774 70.6346 28.4774C70.6346 28.4774 73.7724 26.3244 74.1522 26.6962C74.532 27.0679 74.4128 28.1544 71.9659 28.6204C69.519 29.0863 73.4084 28.4019 73.4084 28.4019C73.4084 28.4019 72.4527 30.9708 69.603 28.8703" fill="#EEAD4F"/>
<path d="M68.1045 27.1847C68.1045 27.1847 71.6635 24.8516 71.4196 25.9764C71.3632 26.2365 69.3833 27.6779 69.3833 27.6779C69.3833 27.6779 71.2523 25.4124 72.2408 25.9517C73.2294 26.491 70.0268 28.2009 70.0268 28.2009C70.0268 28.2009 72.1966 25.882 73.3742 26.1787C74.5518 26.4754 70.6346 28.4774 70.6346 28.4774C70.6346 28.4774 73.7724 26.3244 74.1522 26.6962C74.532 27.0679 74.4128 28.1544 71.9659 28.6204C69.519 29.0863 73.4084 28.4019 73.4084 28.4019C73.4084 28.4019 72.4527 30.9708 69.603 28.8703" stroke="white" stroke-width="0.318969"/>
<path d="M54.3346 30.0535C54.3169 29.8283 54.3892 29.6052 54.5356 29.4331C54.6821 29.2611 54.8908 29.1541 55.116 29.1356C55.3412 29.1171 55.5646 29.1887 55.7371 29.3346C55.8667 29.4442 55.9597 29.589 56.0061 29.7497C55.9955 29.7287 55.9832 29.7085 55.9692 29.6894M54.3346 30.0535C54.3444 30.1659 54.3983 30.2699 54.4846 30.3426C54.5708 30.4154 54.6823 30.451 54.7948 30.4418C54.9072 30.4326 55.0114 30.3792 55.0847 30.2934C55.1579 30.2076 55.1942 30.0962 55.1855 29.9837M54.3346 30.0535L54.3505 30.0521C54.3505 30.0521 54.3505 30.0522 54.3505 30.0522M54.3346 30.0535L54.3505 30.0523C54.3505 30.0522 54.3505 30.0522 54.3505 30.0522M55.1855 29.9837C55.1766 29.8711 55.2128 29.7595 55.286 29.6734C55.3592 29.5873 55.4636 29.5338 55.5763 29.5246C55.6889 29.5153 55.8006 29.5511 55.8869 29.6241C55.9305 29.661 55.9658 29.7058 55.9912 29.7556C55.9848 29.7332 55.9775 29.7111 55.9692 29.6894M55.1855 29.9837L55.1696 29.985C55.1696 29.985 55.1696 29.985 55.1696 29.985M55.1855 29.9837L55.1696 29.985L55.1696 29.985M55.9692 29.6894C55.9486 29.661 55.9245 29.635 55.8972 29.6119C55.8077 29.5362 55.6918 29.4991 55.575 29.5087C55.4581 29.5182 55.3498 29.5738 55.2738 29.6631C55.1979 29.7523 55.1604 29.8681 55.1696 29.985M55.9692 29.6894C55.9192 29.5577 55.8363 29.4394 55.7268 29.3468C55.5575 29.2036 55.3383 29.1334 55.1173 29.1515C54.8963 29.1696 54.6915 29.2746 54.5478 29.4434C54.4041 29.6123 54.3331 29.8312 54.3505 30.0522M55.1696 29.985L55.0725 30.2831C55.002 30.3657 54.9017 30.417 54.7935 30.4259C54.6852 30.4348 54.5778 30.4005 54.4948 30.3304C54.4118 30.2604 54.3599 30.1604 54.3505 30.0522" fill="white" stroke="white" stroke-width="0.0318969"/>
<path d="M52.8617 30.1137C52.8617 30.1137 49.4993 32.3243 50.4441 31.857L53.0675 30.9922L51.3783 31.6515L53.903 31.8502L53.1415 31.0611L52.8617 30.1137Z" fill="#EEAD4F" stroke="white" stroke-width="0.263096"/>
</g>
<path d="M41.3646 69.9889H0.757812V8.39997H41.3646V69.9889Z" fill="#EEAD4F"/>
<path d="M37.0865 67.4061H4.94265C4.08118 67.4061 3.38281 66.7077 3.38281 65.8462V12.2729C3.38281 11.4115 4.08118 10.7131 4.94265 10.7131H37.0865C37.9479 10.7131 38.6463 11.4115 38.6463 12.2729V65.8462C38.6463 66.7077 37.9479 67.4061 37.0865 67.4061Z" fill="white" stroke="white" stroke-width="0.311966"/>
<mask id="mask1_238_9161" style="mask-type:luminance" maskUnits="userSpaceOnUse" x="3" y="10" width="36" height="58">
<path d="M37.0884 67.4061H4.94461C4.08313 67.4061 3.38477 66.7078 3.38477 65.8463V12.273C3.38477 11.4115 4.08313 10.7132 4.94461 10.7132H37.0884C37.9499 10.7132 38.6482 11.4115 38.6482 12.273V65.8463C38.6482 66.7078 37.9499 67.4061 37.0884 67.4061Z" fill="white"/>
</mask>
<g mask="url(#mask1_238_9161)">
<path d="M40.1505 43.1095C40.1505 43.1095 21.3943 33.3024 2.78887 43.6316C-18.414 55.4029 3.38537 67.4061 3.38537 67.4061L41.0425 67.4558L40.1505 43.1095Z" fill="#EEAD4F" stroke="white" stroke-width="0.12"/>
<path d="M21.5 35C27.299 35 32 30.299 32 24.5C32 18.701 27.299 14 21.5 14C15.701 14 11 18.701 11 24.5C11 30.299 15.701 35 21.5 35Z" fill="#EEAD4F" stroke="white" stroke-width="0.268916"/>
</g>
</svg>
