<svg width="25" height="30" viewBox="0 0 25 30" fill="none" xmlns="http://www.w3.org/2000/svg">
<rect x="1" y="0.5" width="23" height="29" rx="1.5" stroke="white"/>
<path d="M11.0666 6.49852C11.0303 5.6819 11.6826 5 12.5 5C13.3174 5 13.9697 5.6819 13.9334 6.49852L13.5444 15.251C13.5196 15.8098 13.0593 16.25 12.5 16.25C11.9407 16.25 11.4804 15.8098 11.4556 15.251L11.0666 6.49852Z" fill="white"/>
<rect x="11" y="17.125" width="3" height="3" rx="1.5" fill="white"/>
<path d="M10.2564 23.611H10.6584V26.389H10.2564V23.611ZM10.5534 24.673H11.0424V25H10.5534V24.673ZM9.52735 23.899H9.91735C9.91735 24.733 9.59935 25.447 8.67535 25.912L8.45335 25.609C9.18235 25.231 9.52735 24.721 9.52735 23.968V23.899ZM8.60635 23.899H9.73135V24.22H8.60635V23.899ZM13.1451 23.611H13.5471V26.398H13.1451V23.611ZM12.0501 23.806C12.4701 23.806 12.7791 24.19 12.7791 24.796C12.7791 25.408 12.4701 25.792 12.0501 25.792C11.6301 25.792 11.3211 25.408 11.3211 24.796C11.3211 24.19 11.6301 23.806 12.0501 23.806ZM12.0501 24.169C11.8431 24.169 11.7021 24.388 11.7021 24.796C11.7021 25.21 11.8431 25.432 12.0501 25.432C12.2571 25.432 12.3951 25.21 12.3951 24.796C12.3951 24.388 12.2571 24.169 12.0501 24.169ZM14.2939 24.895H16.2469V25.213H14.2939V24.895ZM14.0029 25.732H16.5169V26.059H14.0029V25.732ZM14.2939 23.842H16.2259V24.166H14.6899V25.027H14.2939V23.842Z" fill="white"/>
</svg>
