<svg width="31" height="30" viewBox="0 0 31 30" fill="none" xmlns="http://www.w3.org/2000/svg">
<path fill-rule="evenodd" clip-rule="evenodd" d="M21.125 7.5C21.125 11.6421 17.7671 15 13.625 15C9.48286 15 6.125 11.6421 6.125 7.5C6.125 3.35786 9.48286 0 13.625 0C17.7671 0 21.125 3.35786 21.125 7.5ZM26.75 25.3125C26.75 29.9724 21.694 30 14.4453 30C7.19657 30 0.5 29.9724 0.5 25.3125C0.5 20.6526 6.37626 16.875 13.625 16.875C16.0631 16.875 18.3459 17.3023 20.302 18.0469H18.7812C18.0046 18.0469 17.375 18.6765 17.375 19.4531C17.375 20.2298 18.0046 20.8594 18.7812 20.8594H22.7656V24.8438C22.7656 25.6204 23.3952 26.25 24.1719 26.25C24.9485 26.25 25.5781 25.6204 25.5781 24.8438V21.8225C26.3308 22.8861 26.75 24.0678 26.75 25.3125ZM20.302 18.0469C22.6084 18.9247 24.4607 20.2434 25.5781 21.8225V20.8594H29.0938C29.8704 20.8594 30.5 20.2298 30.5 19.4531C30.5 18.6765 29.8704 18.0469 29.0938 18.0469H25.5781V14.5312C25.5781 13.7546 24.9485 13.125 24.1719 13.125C23.3952 13.125 22.7656 13.7546 22.7656 14.5312V18.0469H20.302Z" fill="white"/>
</svg>
