<svg width="31" height="30" viewBox="0 0 31 30" fill="none" xmlns="http://www.w3.org/2000/svg">
<path d="M30.4439 10.9396L21.2342 0.0842048C21.1891 0.0307055 21.1226 0 21.0528 0C20.983 0 20.9164 0.0307031 20.8711 0.0842048L11.662 10.9396C11.602 11.0103 11.5887 11.1094 11.6276 11.1936C11.6666 11.2778 11.7509 11.3315 11.8437 11.3315H17.2653C17.517 13.8581 17.3893 18.492 14.0952 22.6151C12.0143 25.22 9.21859 26.9569 5.78599 27.7777C3.1167 28.416 0.993128 28.2471 0.759789 28.2257C0.641839 28.2146 0.534359 28.292 0.506678 28.4069C0.478994 28.5218 0.53948 28.6395 0.649284 28.6837C2.84444 29.5676 5.14317 30.0002 7.42135 30C11.5086 30 15.5293 28.6079 18.7667 25.9324C24.5799 21.1275 25.207 14.2952 25.1767 11.3315H30.2619C30.3548 11.3315 30.439 11.2776 30.4781 11.1936C30.5169 11.1094 30.5039 11.0103 30.4439 10.9396Z" fill="white"/>
<path fill-rule="evenodd" clip-rule="evenodd" d="M10.5781 10.7812C10.5781 10.0046 9.94853 9.375 9.17188 9.375C8.39522 9.375 7.76562 10.0046 7.76562 10.7812V14.2969H3.78125C3.0046 14.2969 2.375 14.9265 2.375 15.7031C2.375 16.4798 3.0046 17.1094 3.78125 17.1094H7.76562V21.0938C7.76562 21.8704 8.39522 22.5 9.17187 22.5C9.94852 22.5 10.5781 21.8704 10.5781 21.0938V17.1094H14.0938C14.8704 17.1094 15.5 16.4798 15.5 15.7031C15.5 14.9265 14.8704 14.2969 14.0938 14.2969H10.5781V10.7812Z" fill="white"/>
</svg>
