<svg width="31" height="30" viewBox="0 0 31 30" fill="none" xmlns="http://www.w3.org/2000/svg">
<path fill-rule="evenodd" clip-rule="evenodd" d="M30.5 15C30.5 23.2843 23.7843 30 15.5 30C12.7667 30 10.2042 29.2689 7.99724 27.9917C5.31666 29.2475 3.65168 29.6677 0.5 30C2.06731 27.595 2.4521 25.9274 2.50954 22.5048C1.23153 20.2975 0.5 17.7342 0.5 15C0.5 6.71573 7.21573 0 15.5 0C23.7843 0 30.5 6.71573 30.5 15ZM14.4212 13.7699H15.4837C15.4401 13.446 15.3473 13.1581 15.2053 12.9062C15.0651 12.6525 14.8861 12.4384 14.6683 12.2642C14.4505 12.0881 14.2024 11.9545 13.924 11.8636C13.6456 11.7727 13.3445 11.7273 13.0206 11.7273C12.513 11.7273 12.0585 11.8456 11.657 12.0824C11.2554 12.3191 10.9382 12.661 10.7053 13.108C10.4723 13.553 10.3558 14.089 10.3558 14.7159C10.3558 15.3409 10.4714 15.8769 10.7024 16.3239C10.9335 16.7708 11.2498 17.1127 11.6513 17.3494C12.0528 17.5862 12.5092 17.7045 13.0206 17.7045C13.3672 17.7045 13.6825 17.6534 13.9666 17.5511C14.2507 17.447 14.4988 17.303 14.7109 17.1193C14.9231 16.9337 15.0945 16.7197 15.2251 16.4773C15.3577 16.2348 15.4439 15.9754 15.4837 15.6989L14.4212 15.6932C14.389 15.8636 14.3303 16.0152 14.245 16.1477C14.1617 16.2803 14.0585 16.392 13.9354 16.483C13.8142 16.5739 13.6768 16.643 13.5234 16.6903C13.3719 16.7358 13.209 16.7585 13.0348 16.7585C12.7204 16.7585 12.4411 16.6818 12.1967 16.5284C11.9543 16.3731 11.763 16.1439 11.6229 15.8409C11.4846 15.536 11.4155 15.161 11.4155 14.7159C11.4155 14.2784 11.4846 13.9081 11.6229 13.6051C11.7611 13.3002 11.9524 13.0691 12.1967 12.9119C12.4411 12.7528 12.7214 12.6733 13.0376 12.6733C13.2157 12.6733 13.3814 12.6979 13.5348 12.7472C13.6901 12.7945 13.8284 12.8655 13.9496 12.9602C14.0708 13.0549 14.1721 13.1705 14.2536 13.3068C14.335 13.4413 14.3909 13.5956 14.4212 13.7699ZM19.2756 12.8267C19.4725 12.965 19.5843 13.1581 19.6108 13.4062H20.625C20.6193 13.0786 20.5275 12.7888 20.3494 12.5369C20.1714 12.2831 19.9261 12.0852 19.6136 11.9432C19.303 11.7992 18.9413 11.7273 18.5284 11.7273C18.1212 11.7273 17.7566 11.7992 17.4347 11.9432C17.1127 12.0852 16.858 12.285 16.6705 12.5426C16.4848 12.8002 16.392 13.1004 16.392 13.4432C16.392 13.8598 16.5303 14.1941 16.8068 14.446C17.0852 14.696 17.464 14.8826 17.9432 15.0057L18.6051 15.1761C18.8134 15.2292 18.9953 15.2898 19.1506 15.358C19.3078 15.4242 19.4299 15.5076 19.517 15.608C19.6042 15.7064 19.6487 15.8314 19.6506 15.983C19.6487 16.1496 19.5985 16.2955 19.5 16.4205C19.4015 16.5436 19.2652 16.6402 19.0909 16.7102C18.9186 16.7784 18.7178 16.8125 18.4886 16.8125C18.2689 16.8125 18.0701 16.7794 17.892 16.7131C17.7159 16.6468 17.5729 16.5464 17.4631 16.4119C17.3532 16.2775 17.2907 16.1089 17.2756 15.9062H16.2386C16.2538 16.2926 16.3542 16.6203 16.5398 16.8892C16.7273 17.1581 16.9867 17.3627 17.3182 17.5028C17.6515 17.643 18.0445 17.7131 18.4972 17.7131C18.9631 17.7131 19.3598 17.6411 19.6875 17.4972C20.017 17.3513 20.2689 17.1496 20.4432 16.892C20.6174 16.6326 20.7045 16.3324 20.7045 15.9915C20.7045 15.7396 20.6572 15.5199 20.5625 15.3324C20.4678 15.1449 20.339 14.9848 20.1761 14.8523C20.0152 14.7197 19.8324 14.6098 19.6278 14.5227C19.4252 14.4356 19.214 14.3665 18.9943 14.3153L18.4489 14.179C18.3295 14.1506 18.2112 14.1155 18.0938 14.0739C17.9763 14.0322 17.8693 13.9811 17.7727 13.9205C17.6761 13.858 17.5994 13.7822 17.5426 13.6932C17.4877 13.6042 17.4602 13.4991 17.4602 13.3778C17.4621 13.232 17.5047 13.1023 17.5881 12.9886C17.6714 12.875 17.7917 12.785 17.9489 12.7188C18.1061 12.6525 18.2945 12.6193 18.5142 12.6193C18.8267 12.6193 19.0805 12.6884 19.2756 12.8267Z" fill="white"/>
</svg>
