<svg width="25" height="30" viewBox="0 0 25 30" fill="none" xmlns="http://www.w3.org/2000/svg">
<path fill-rule="evenodd" clip-rule="evenodd" d="M1.5 0C0.947715 0 0.5 0.447716 0.5 1V29C0.5 29.5523 0.947716 30 1.5 30H23.5C24.0523 30 24.5 29.5523 24.5 29L24.5 11.25L20.9395 6.79939L20.9383 6.79783L18.0995 3.24939L18.0988 3.24848L15.5 0H1.5ZM4.4375 5.625C3.91973 5.625 3.5 6.04473 3.5 6.5625C3.5 7.08027 3.91973 7.5 4.4375 7.5H11.5625C12.0803 7.5 12.5 7.08027 12.5 6.5625C12.5 6.04473 12.0803 5.625 11.5625 5.625H4.4375ZM3.5 2.8125C3.5 2.29473 3.91973 1.875 4.4375 1.875H11.5625C12.0803 1.875 12.5 2.29473 12.5 2.8125C12.5 3.33027 12.0803 3.75 11.5625 3.75H4.4375C3.91973 3.75 3.5 3.33027 3.5 2.8125ZM4.4375 9.375C3.91973 9.375 3.5 9.79473 3.5 10.3125C3.5 10.8303 3.91973 11.25 4.4375 11.25H11.5625C12.0803 11.25 12.5 10.8303 12.5 10.3125C12.5 9.79473 12.0803 9.375 11.5625 9.375H4.4375ZM3.5 15.9375C3.5 15.4197 3.91973 15 4.4375 15H20.5625C21.0803 15 21.5 15.4197 21.5 15.9375C21.5 16.4553 21.0803 16.875 20.5625 16.875H4.4375C3.91973 16.875 3.5 16.4553 3.5 15.9375ZM4.4375 18.75C3.91973 18.75 3.5 19.1697 3.5 19.6875C3.5 20.2053 3.91973 20.625 4.4375 20.625H20.5625C21.0803 20.625 21.5 20.2053 21.5 19.6875C21.5 19.1697 21.0803 18.75 20.5625 18.75H4.4375ZM3.5 23.4375C3.5 22.9197 3.91973 22.5 4.4375 22.5H20.5625C21.0803 22.5 21.5 22.9197 21.5 23.4375C21.5 23.9553 21.0803 24.375 20.5625 24.375H4.4375C3.91973 24.375 3.5 23.9553 3.5 23.4375ZM4.4375 26.25C3.91973 26.25 3.5 26.6697 3.5 27.1875C3.5 27.7053 3.91973 28.125 4.4375 28.125H20.5625C21.0803 28.125 21.5 27.7053 21.5 27.1875C21.5 26.6697 21.0803 26.25 20.5625 26.25H4.4375Z" fill="white"/>
<path d="M24.5 11.25L15.5 -2.98322e-08L15.5 11.25L24.5 11.25Z" fill="#AFAFAF"/>
</svg>
