<svg width="31" height="30" viewBox="0 0 31 30" fill="none" xmlns="http://www.w3.org/2000/svg">
<path d="M0.556092 19.0604L9.76577 29.9158C9.8109 29.9693 9.87744 30 9.94723 30C10.017 30 10.0836 29.9693 10.1289 29.9158L19.338 19.0604C19.398 18.9897 19.4113 18.8906 19.3724 18.8064C19.3334 18.7222 19.2491 18.6685 19.1563 18.6685L13.7347 18.6685C13.483 16.1419 13.6107 11.508 16.9048 7.38493C18.9858 4.78 21.7814 3.04314 25.214 2.22228C27.8833 1.584 30.0069 1.75289 30.2402 1.77429C30.3582 1.78546 30.4656 1.708 30.4933 1.59309C30.521 1.47818 30.4605 1.36049 30.3507 1.31629C28.1556 0.432377 25.8568 -0.000233102 23.5786 3.20961e-06C19.4914 2.8523e-06 15.4707 1.39215 12.2333 4.06759C6.42014 8.87248 5.79296 15.7048 5.82333 18.6685L0.738063 18.6685C0.64524 18.6685 0.561021 18.7224 0.521941 18.8064C0.48309 18.8906 0.496072 18.9897 0.556092 19.0604Z" fill="white"/>
<path d="M15.5 14.5312C15.5 13.7546 16.1296 13.125 16.9062 13.125H27.2187C27.9954 13.125 28.625 13.7546 28.625 14.5312C28.625 15.3079 27.9954 15.9375 27.2187 15.9375H16.9062C16.1296 15.9375 15.5 15.3079 15.5 14.5312Z" fill="white"/>
</svg>
