<svg width="33" height="33" viewBox="0 0 33 33" fill="none" xmlns="http://www.w3.org/2000/svg">
<rect x="0.412476" y="0.412476" width="32.175" height="32.175" rx="16.0875" fill="black" fill-opacity="0.5"/>
<rect x="0.412476" y="0.412476" width="32.175" height="32.175" rx="16.0875" stroke="#9F9F9F" stroke-width="0.824952"/>
<mask id="mask0_16_170" style="mask-type:alpha" maskUnits="userSpaceOnUse" x="3" y="3" width="27" height="27">
<rect x="3.55469" y="3.55469" width="25.8908" height="25.8908" fill="#D9D9D9"/>
</mask>
<g mask="url(#mask0_16_170)">
<path d="M11.5414 22.9728V21.894H19.3669C20.4857 21.894 21.439 21.5102 22.2267 20.7427C23.0142 19.9751 23.408 19.0381 23.408 17.9316C23.408 16.8252 23.0142 15.8916 22.2267 15.1308C21.439 14.3701 20.4857 13.9898 19.3669 13.9898H11.0147L14.2135 17.1889L13.45 17.9524L8.94824 13.4504L13.45 8.94861L14.2135 9.71212L11.0147 12.911H19.3669C20.779 12.911 21.9853 13.3979 22.9859 14.3717C23.9865 15.3453 24.4868 16.5319 24.4868 17.9316C24.4868 19.3312 23.9865 20.5213 22.9859 21.5019C21.9853 22.4825 20.779 22.9728 19.3669 22.9728H11.5414Z" fill="white"/>
</g>
</svg>
