<svg width="34" height="33" viewBox="0 0 34 33" fill="none" xmlns="http://www.w3.org/2000/svg">
<rect x="0.994996" y="0.412476" width="32.175" height="32.175" rx="16.0875" fill="black" fill-opacity="0.5"/>
<rect x="0.994996" y="0.412476" width="32.175" height="32.175" rx="16.0875" stroke="#9F9F9F" stroke-width="0.824952"/>
<path d="M8.31499 20.411L11.4143 15.5165L8.4973 10.8044H10.0961L12.396 14.4788H12.4662L14.5838 10.8044H16.0563L13.2375 15.5165L16.2246 20.411H14.6259L12.2277 16.5403H12.1997L9.81558 20.411H8.31499ZM19.5086 20.411V19.5555L21.5281 17.4519C22.8464 16.0635 23.8561 14.9415 23.8561 13.6794C23.8561 12.4733 23.225 11.9544 21.9628 11.9544C21.2476 11.9544 20.4622 12.305 19.9293 12.6556L19.6348 11.5477C20.2519 11.169 21.2195 10.7623 22.2994 10.7623C24.3189 10.7623 25.3847 11.8001 25.3847 13.5111C25.3847 15.18 24.1085 16.5263 22.7622 17.9427L21.472 19.233H25.5109V20.411H19.5086Z" fill="white"/>
</svg>
