<svg width="34" height="33" viewBox="0 0 34 33" fill="none" xmlns="http://www.w3.org/2000/svg">
<rect x="1.19421" y="0.412476" width="32.175" height="32.175" rx="16.0875" fill="black" fill-opacity="0.5"/>
<rect x="1.19421" y="0.412476" width="32.175" height="32.175" rx="16.0875" stroke="#9F9F9F" stroke-width="0.824952"/>
<path d="M18.667 18.9352H26.9627V20.0142H18.667V18.9352ZM22.112 16.8959H23.4187V19.2223H22.112V16.8959ZM22.0625 12.4214H23.2108V13.0846C23.2108 15.0348 21.7952 16.7573 19.3995 17.1929L18.8551 16.0941C20.9439 15.7575 22.0625 14.3518 22.0625 13.0846V12.4214ZM22.3199 12.4214H23.4682V13.0846C23.4682 14.3815 24.5869 15.7575 26.6855 16.0941L26.1411 17.1929C23.7355 16.7474 22.3199 15.0645 22.3199 13.0846V12.4214Z" fill="white"/>
<path d="M9.93734 13.6588H10.9966V13.7677C10.9966 15.1239 10.1848 16.2327 8.42273 16.589L7.89806 15.5694C9.31368 15.312 9.93734 14.5597 9.93734 13.7677V13.6588ZM10.2046 13.6588H11.2639V13.7677C11.2639 14.5102 11.8776 15.1932 13.2635 15.4407L12.7488 16.4504C11.0164 16.1238 10.2046 15.0645 10.2046 13.7677V13.6588ZM8.14554 12.8273H13.0458V13.837H8.14554V12.8273ZM9.93734 11.9363H11.2639V13.5499H9.93734V11.9363ZM9.92744 17.1236H11.2441V20.8062H9.92744V17.1236ZM13.9367 11.9165H15.2434V21.0834H13.9367V11.9165ZM7.75947 18.0443L7.60107 16.9751C9.26418 16.9751 11.4915 16.9652 13.412 16.7078L13.5011 17.6582C11.5212 18.0146 9.39287 18.0443 7.75947 18.0443Z" fill="white"/>
</svg>
