<svg width="34" height="33" viewBox="0 0 34 33" fill="none" xmlns="http://www.w3.org/2000/svg">
<rect x="0.611695" y="0.412476" width="32.175" height="32.175" rx="16.0875" fill="black" fill-opacity="0.5"/>
<rect x="0.611695" y="0.412476" width="32.175" height="32.175" rx="16.0875" stroke="#9F9F9F" stroke-width="0.824952"/>
<path d="M12.7483 16.5695L12.8454 17.4001C11.0223 17.6483 8.86472 17.7346 6.79345 17.7561L6.63164 16.85C7.34363 16.85 8.30375 16.85 9.15599 16.8284V16.3106C8.16351 16.1811 7.4623 15.7172 7.4623 15.016C7.4623 14.1746 8.42242 13.6675 9.69538 13.6675C10.9791 13.6675 11.9393 14.1746 11.9393 15.016C11.9393 15.7172 11.238 16.1811 10.2564 16.3106V16.7744C11.141 16.7313 12.1874 16.6558 12.7483 16.5695ZM14.4205 11.2403V14.1961H15.8013V15.1239H14.4205V17.659H13.3201V11.2403H14.4205ZM7.9909 18.1553H14.4205V20.8846H13.3201V19.0507H7.9909V18.1553ZM12.4139 13.4302H6.99842V12.5888H12.4139V13.4302ZM8.37927 12.168V11.3266H11.0654V12.168H8.37927ZM10.8605 15.016C10.8605 14.66 10.4074 14.4766 9.69538 14.4766C8.99417 14.4766 8.5303 14.66 8.5303 15.016C8.5303 15.3612 9.00496 15.5554 9.69538 15.5554C10.4074 15.5554 10.8605 15.3504 10.8605 15.016ZM25.7394 18.2092H24.6391V11.2403H25.7394V18.2092ZM25.966 20.5718H19.3854V17.5512H20.4858V19.6872H25.966V20.5718ZM23.0425 14.304C23.0425 15.6741 22.05 16.6558 20.5828 16.6558C19.1157 16.6558 18.1016 15.6741 18.1016 14.3148C18.1016 12.9448 19.1049 11.9523 20.5828 11.9523C22.05 11.9523 23.0425 12.934 23.0425 14.304ZM21.9421 14.304C21.9421 13.4626 21.4243 12.8692 20.5828 12.8692C19.763 12.8692 19.2128 13.4841 19.2128 14.304C19.2128 15.0915 19.763 15.7172 20.5828 15.7172C21.4243 15.7172 21.9421 15.0915 21.9421 14.304Z" fill="white"/>
</svg>
