<svg width="34" height="33" viewBox="0 0 34 33" fill="none" xmlns="http://www.w3.org/2000/svg">
<rect x="1.39343" y="0.412476" width="32.175" height="32.175" rx="16.0875" fill="black" fill-opacity="0.5"/>
<rect x="1.39343" y="0.412476" width="32.175" height="32.175" rx="16.0875" stroke="#9F9F9F" stroke-width="0.824952"/>
<path d="M15.7524 20.8522H14.6952V15.9869H13.6703V20.3884H12.6347V11.4345H13.6703V15.0592H14.6952V11.2403H15.7524V20.8522ZM12.0198 17.0873L12.1708 17.9827C11.5235 18.1445 10.2182 18.2739 9.06391 18.2847H8.11458V12.3838H9.21494V17.3678C10.1751 17.3678 11.3941 17.2707 12.0198 17.0873ZM23.6192 14.0559C23.6192 15.4152 22.5405 16.3213 21.1596 16.3213C19.8219 16.3213 18.7108 15.4152 18.7108 14.0559C18.7108 12.729 19.8003 11.7365 21.1596 11.7365C22.5189 11.7365 23.6192 12.7074 23.6192 14.0559ZM19.919 17.2815H26.532V20.863H25.4208V18.1769H19.919V17.2815ZM23.8997 15.6201L23.9429 14.714H25.4208V13.3763H23.9429L23.8997 12.4701H25.4208V11.2403H26.532V16.7744H25.4208V15.6201H23.8997ZM22.5405 14.0451C22.5405 13.29 22.0334 12.6427 21.1596 12.6427C20.3505 12.6427 19.8003 13.3008 19.8003 14.0451C19.8003 14.8542 20.3613 15.4583 21.1596 15.4583C21.9903 15.4583 22.5405 14.8326 22.5405 14.0451Z" fill="white"/>
</svg>
